<svg width="96" height="43" fill="none" xmlns="http://www.w3.org/2000/svg"><path d="M56.973 21.496c0 .35-.011.7 0 1.052.12 3.564-.992 6.776-2.777 9.804a44.113 44.113 0 00-1.686 3.11c-.425.871-1.016 1.483-1.935 1.84-.514.199-.99.544-1.42.9-1.98 1.636-4.227 2.809-6.63 3.634-1.597.548-3.24 1.03-4.975 1.01-.517-.007-1.035.152-1.553.154-.518.002-1.036-.167-1.549-.145-2.236.097-4.308-.592-6.364-1.315-2.245-.788-4.227-2.033-6.092-3.517-2.632-2.093-4.507-4.73-5.885-7.748-.743-1.627-1.348-3.306-1.519-5.11-.028-.3-.127-.597-.215-.887-.626-2.026-.266-4.011.121-6.029.296-1.543.6-3.067 1.177-4.532 1.523-3.876 3.943-7.049 7.294-9.541 2.794-2.076 5.92-3.352 9.32-3.9 3.9-.63 7.709-.176 11.404 1.294 1.844.735 3.583 1.667 5.102 2.901 1.418 1.151 2.696 2.497 3.904 3.874 1.094 1.247 1.87 2.732 2.565 4.248 1.083 2.368 1.79 4.819 1.718 7.452-.016.487-.005.97-.005 1.451zM55.475 16.7c-.108-.828-.175-1.786-.377-2.717-.576-2.677-2.125-4.767-4.189-6.473-1.172-.97-2.45-1.814-3.709-2.671-.426-.29-.922-.558-1.42-.647-1.28-.236-2.575-.457-3.873-.523-2.252-.115-4.275-.696-5.976-2.264C34.68.251 33.317.14 32.016 1.154c-1.475 1.15-3.153 1.825-4.863 2.492-1.254.49-2.46 1.107-3.666 1.716-1.007.51-1.594 1.305-1.58 2.509.008.675-.301 1.24-.926 1.614-.521.313-1.022.66-1.5 1.038-1.332 1.05-2.371 2.233-2.596 4.068-.177 1.452-.616 2.887-1.61 4.082-.332.412-.538.91-.593 1.436-.091 1.085-.054 2.183-.027 3.275.008.292.134.605.284.862a20.66 20.66 0 001.12 1.767c.976 1.358 1.824 2.75 2.02 4.474.19 1.671.997 3.033 2.361 4.072 1.977 1.506 3.882 3.105 5.888 4.571 1.078.79 2.232 1.482 3.654 1.642 1.422.16 2.816.547 4.092 1.264.267.144.56.234.862.265 1.799.194 3.464-.252 5.044-1.094a24.564 24.564 0 011.518-.734c1.235-.553 2.603-.916 3.679-1.687 1.196-.858 2.475-1.24 3.848-1.48.593-.103 1.079-.348 1.465-.79.46-.523.887-1.077 1.367-1.584.497-.522.855-1.078.942-1.822.133-1.141.621-2.149 1.24-3.117 1.048-1.635 1.644-3.442 1.954-5.364.081-.504.127-.93-.122-1.374-.721-1.28-.427-2.734-.655-4.096-.116-.737.15-1.543.262-2.462l-.003.002zm-8.682-12.79c-.305-.336-.401-.489-.54-.583-.248-.173-.52-.313-.785-.463C43.204 1.587 40.724.966 38.191.521c-.51-.09-1.045-.05-1.564-.03-.135.005-.296.136-.382.255-.04.054.05.243.124.333a4.858 4.858 0 002.127 1.467c1.43.515 2.934.798 4.454.837.644.018 1.286.14 1.927.227.547.077 1.093.17 1.916.3zM27.556 40.695c-1.52-1.243-2.852-2.354-4.207-3.436-1.123-.894-2.27-1.759-3.417-2.622-.128-.097-.332-.094-.614-.167 1.383 2.322 5.998 5.85 8.238 6.225zM17.317 11.689c.917-.7 1.765-1.438 2.696-2.048 1.305-.851 1.804-1.91 1.496-3.726-.926.758-1.587 1.671-2.301 2.5-.755.876-1.314 1.918-1.944 2.897-.048.08.03.235.053.377zm30.91 26.501c-.856-.058-1.716.093-2.253.554-1.018.876-2.228 1.317-3.46 1.755-.647.23-1.257.567-1.866.889-.084.044-.1.28-.083.42.006.047.234.124.328.092 1.106-.377 2.25-.68 3.297-1.185 1.284-.617 2.49-1.398 3.72-2.123.128-.072.196-.243.316-.402zM15.562 26.044c-.246.725-.197 1.127-.043 1.554.429 1.186.69 2.437 1.462 3.473.286.385.345 1.244.873 1.058.465-.161-.079-.841-.11-1.3-.123-1.753-1.043-3.165-2.182-4.785zm8.293-21.822l.115.173c.639-.238 1.283-.462 1.916-.716a296.661 296.661 0 004.11-1.685c.275-.117.528-.303.763-.492.065-.054.054-.235.033-.347-.01-.05-.14-.104-.215-.108a1.348 1.348 0 00-.378.063c-1.857.528-3.608 1.309-5.283 2.257-.392.222-.71.567-1.061.855zm32.607 18.82c.112-.13.2-.185.206-.247.181-1.909-.02-3.8-.282-5.688-.013-.095-.145-.23-.234-.242-.099-.013-.252.069-.312.157a1.01 1.01 0 00-.178.473 18.143 18.143 0 00.305 4.65c.06.308.315.58.495.897zm-41.349-5.269c.725-.276.833-.777.911-1.229.19-1.102.663-2.163.506-3.328-.757 1.39-1.429 2.8-1.416 4.557zM32.65 41.971c-1.624-.72-2.064-.794-3.51-.593.613.232 1.164.602 1.719.608.578.008 1.205.717 1.792-.015z" fill="#2E2520"/><path d="M36 27.672c-1.11-.02-1.874-.485-2.439-1.383-.526-.838-1.401-1.274-2.203-1.79-1.01-.65-1.833-1.385-2.066-2.704-.162-.894.026-1.67.389-2.377.304-.59.848-1.138 1.419-1.49.619-.38 1.132-.739 1.418-1.442.323-.808 1.138-.857 1.86-1.003.68-.136 1.371-.224 2.041-.396.917-.234 1.748-.162 2.418.553.517.554 1.122.951 1.796 1.287.7.35.932.758.712 1.488-.149.495-.005.832.18 1.228.202.431.41.87.548 1.325.461 1.516-.07 2.792-1.491 3.466-.88.419-1.555.976-1.775 1.956-.088.396-.334.62-.682.722-.703.206-1.416.376-2.125.56zm4.662-6.354c.023-2.67-2-4.806-4.63-4.809-2.36 0-4.735 1.598-4.827 4.661-.074 2.452 1.967 4.735 4.627 4.743 3.239.017 4.767-2.234 4.83-4.595zm-9.483 2.553c0-.343.033-.518-.005-.676-.349-1.45-.575-2.887.216-4.284.057-.1-.075-.307-.119-.465-.155.05-.343.06-.46.157-1.307 1.074-1.89 3.652.368 5.268zm4.855-8.032c.547.2.86.343 1.186.431 1.205.32 2.233.893 2.949 1.95.14.209.323.518.593.28.143-.126.19-.513.107-.706-.111-.258-.365-.578-.608-.629-.662-.138-1.025-.618-1.456-1.036-.725-.697-1.536-.916-2.77-.29zM35.96 26.35l-.016-.1c-.348 0-.698-.03-1.04.012-.176.021-.335.17-.502.262.152.134.284.346.459.39.933.235 1.875.286 2.795-.075.158-.062.333-.143.432-.27.087-.107.115-.299.098-.444-.007-.054-.225-.135-.333-.118-.632.1-1.262.224-1.89.341l-.003.002zm4.775-2.739c.647-.12.936-.485.974-1.046a9.675 9.675 0 00-.02-1.42c-.011-.124-.185-.235-.283-.352-.144.136-.436.32-.41.401.263.82-.286 1.552-.26 2.416v.001zM46.653 27.308c-.037.02-.187.145-.35.162-.147.017-.363-.032-.454-.136-.46-.519-.907-1.052-1.318-1.61-.108-.146-.152-.54-.09-.573.201-.112.597-.228.685-.132.52.574.977 1.206 1.448 1.824.045.062.031.169.079.465zM24.629 31.805c.24.019.715.033 1.178.113.116.02.27.245.27.38s-.133.368-.249.396c-.9.224-1.796.28-2.593-.323a.403.403 0 01-.126-.332c.017-.09.157-.215.25-.222.346-.029.693-.012 1.27-.012zM52.841 12.85l.34.186c-.096.173-.155.45-.296.501-.648.238-1.313.428-1.99.568-.194.038-.477-.153-.656-.31-.207-.184-.084-.58.177-.62.767-.118 1.54-.209 2.425-.326zM29.925 35.664c.36.168.661.215.808.395.403.5.772 1.027 1.104 1.577.162.262.014.546-.258.621-.15.042-.42-.08-.53-.215-.44-.53-.847-1.085-1.22-1.663-.086-.138.048-.414.096-.715zM44.054 14.805c.023-.153 0-.328.072-.395.097-.089.305-.162.405-.114.136.065.225.244.319.385.26.391.519.785.767 1.186.111.18.26.37.27.564.01.179-.098.411-.233.534-.075.07-.384.024-.46-.071-.498-.633-1.095-1.226-1.14-2.089zM45.604 8.076c-.108.647-.15 1.123-.276 1.579a1.306 1.306 0 01-.432.625c-.142.115-.392.098-.593.14-.016-.188-.075-.384-.04-.562.105-.551.245-1.096.371-1.642.01-.043.007-.088.02-.13.099-.33.314-.58.657-.444.173.069.254.371.293.434zM36.31 12.283c.302.037.694.058 1.068.148.128.031.317.261.294.36-.038.178-.186.411-.342.464a1.294 1.294 0 01-.759.004c-.431-.138-.833-.183-1.263-.003-.282.118-.548-.006-.623-.288-.101-.377.183-.56.501-.613.34-.057.69-.048 1.123-.072zM43.033 30.866c-.122.535-.215 1.005-.347 1.464-.026.09-.216.21-.296.19-.143-.035-.345-.148-.374-.265a1.77 1.77 0 01-.021-.776c.1-.47.2-.916.01-1.397-.09-.23-.064-.597.285-.596.188 0 .459.233.543.425.138.308.147.67.2.955zM37.729 30.729c-.07.125-.105.273-.197.337-.567.391-1.136.784-1.733 1.127-.153.087-.42.033-.615-.025-.286-.084-.345-.46-.108-.611.653-.42 1.31-.835 1.984-1.22.107-.063.323.004.462.073.095.047.135.2.207.319zM30.496 5.584c.092.054.266.101.289.186.225.83.443 1.664.622 2.505.05.233-.26.363-.467.224-.652-.439-1.057-2.064-.677-2.744.039-.067.135-.101.233-.171zM38.55 7.943c-.196-.131-.408-.198-.436-.311-.031-.123.07-.333.18-.431.478-.428.979-.83 1.499-1.205.175-.124.539-.211.674-.115.318.224.15.54-.071.77-.297.311-.593.639-.936.89-.263.19-.6.27-.91.402zM26.157 12.332l-.477.45c-.136-.147-.337-.27-.394-.445a32.219 32.219 0 01-.602-2.09c-.025-.096.054-.293.135-.327.132-.054.35-.075.45 0 .197.146.423.342.488.561.17.572.26 1.169.4 1.85zM20.94 23.86c-.438.802-.77 1.623-1.584 2.06-.137.074-.44-.02-.586-.137-.25-.198 0-.362.12-.53.383-.527.736-1.076 1.142-1.582.105-.13.37-.194.551-.176.123.011.223.22.357.366zM25.878 23.929c.228.132.394.171.424.258.051.142.078.366 0 .465-.125.157-.339.248-.523.353-.478.275-.95.564-1.447.798-.152.071-.426.05-.56-.046-.278-.198-.18-.515.043-.655.682-.427 1.4-.801 2.063-1.173zM50.595 20.299c-.176.396-.423.994-.716 1.569-.045.088-.328.137-.449.084-.111-.05-.233-.275-.21-.397.117-.639.247-1.28.445-1.896.06-.188.333-.36.543-.422.077-.024.28.27.377.448.055.1.01.256.01.614zM20.802 15.536c.774.694.682 1.637.768 2.508.016.162-.185.393-.346.51-.084.061-.426-.037-.434-.094a50.075 50.075 0 01-.29-2.648c-.006-.076.175-.168.302-.276zM38.88 37.034c.13.034.257.076.382.125.465.216.932.425 1.386.663.215.112.431.252.586.43.179.208-.025.607-.275.552-.843-.182-1.667-.436-2.297-1.067-.093-.093-.091-.327-.061-.481.018-.088.18-.148.28-.222zM28.62 15.79c.044.14.197.356.143.492-.283.72-.61 1.423-.944 2.12-.041.086-.216.162-.32.148-.09-.01-.215-.138-.239-.235-.176-.777.381-2.17 1.003-2.52.064-.036.166-.005.356-.005zM52.728 27.6c-.097-.062-.299-.137-.404-.282-.042-.058.094-.32.21-.405a19.122 19.122 0 011.601-1.06c.149-.087.458-.093.568.004.1.091.115.432.024.557-.462.644-1.045 1.136-1.998 1.186zM49.525 33.15c-.4-.041-.574-.045-.74-.083-.071-.015-.176-.099-.177-.153a.576.576 0 01.09-.348.666.666 0 01.324-.202c.617-.185 1.234-.371 1.86-.522.136-.032.422.057.44.135.04.184-.008.407-.08.593-.039.098-.191.18-.308.215-.536.148-1.074.28-1.409.365zM30.955 28.695c-.044.189-.116.605-.255.998-.034.098-.304.191-.428.156-.124-.036-.27-.24-.265-.368.012-.727.049-1.455.122-2.179.016-.158.216-.297.331-.445.139.146.362.275.397.443.078.375.062.77.098 1.395zM59.856 5.943c0-1.54.373-2.709 1.118-3.504.753-.804 1.718-1.206 2.895-1.206 1.176 0 2.112.347 2.806 1.04.702.695 1.054 1.803 1.054 3.327 0 1.523-.373 2.674-1.118 3.453-.745.779-1.74 1.168-2.984 1.168-1.075 0-1.955-.309-2.64-.927-.356-.321-.636-.766-.839-1.333-.194-.575-.292-1.248-.292-2.018zm3.974-4.584c-.855 0-1.557.381-2.107 1.143-.542.762-.813 1.879-.813 3.352 0 1.472.258 2.547.775 3.224.516.678 1.202 1.016 2.057 1.016.863 0 1.566-.38 2.107-1.143.55-.77.826-1.883.826-3.338 0-1.465-.263-2.54-.787-3.225-.517-.686-1.203-1.029-2.058-1.029zM69.925 10.17H68.87V1.283h1.054v4.088h4.126V1.283h1.054v8.887h-1.054V5.498h-4.126v4.672zM80.523 10.17h-.165l1.104-8.887h.42l2.666 8.214L87.2 1.283h.42l1.104 8.887h-1.054l-.876-7.11-2.298 7.11h-.8l-2.324-7.02-.85 7.02zM95.759 1.283c.16.161.241.368.241.622 0 .212-.047.428-.14.648L93.588 7.16v3.01h-1.054V7.44l-2.54-6.158h1.08l2.425 5.726 2.209-4.456c.093-.212.14-.432.14-.66 0-.229-.064-.407-.19-.534l.1-.076zM1.79 12.505c.656-.03 1.298-.045 1.924-.045.642 0 1.313.068 2.014.202a7.149 7.149 0 012.103.76c.701.358 1.29.828 1.768 1.41.492.567.887 1.32 1.186 2.26.298.94.447 2.08.447 3.423 0 1.342-.223 2.55-.67 3.624-.433 1.059-1.03 1.872-1.79 2.438-1.478 1.104-3.26 1.656-5.349 1.656-.73 0-1.499-.03-2.304-.09H0V12.505h1.79zm.067 15.46c.313.03.709.044 1.186.044s.835-.007 1.074-.022c.239-.015.567-.075.985-.18a5.75 5.75 0 001.163-.469c.358-.194.731-.477 1.119-.85a5.563 5.563 0 001.03-1.365c.64-1.223.961-2.819.961-4.788 0-1.401-.171-2.61-.514-3.624-.343-1.029-.739-1.79-1.186-2.282a4.619 4.619 0 00-1.589-1.163c-.626-.298-1.126-.47-1.5-.515a11.018 11.018 0 00-1.297-.067c-.492 0-.97.023-1.432.067v15.214zM60.22 28.143h-.291v-15.66h.76l9.308 14.475V12.483h.291v15.66h-1.633l-8.436-12.975v12.975zM84.066 12.483h.291v8.949c0 2.341-.462 4.064-1.387 5.168-.925 1.088-2.133 1.633-3.625 1.633-.94 0-1.738-.082-2.394-.246a5.15 5.15 0 01-1.857-.962c-1.193-.925-1.79-2.79-1.79-5.593v-8.95h1.857v8.927c0 2.715.41 4.527 1.23 5.437.418.447.85.753 1.298.917.463.164 1.015.246 1.656.246 1.432 0 2.573-.522 3.424-1.566.865-1.059 1.297-2.737 1.297-5.034v-8.926zM91.99 28.143h-1.857V12.707h-3.87v-.224h9.62v.224H91.99v15.436z" fill="#2E2520"/></svg>